<svg xmlns="http://www.w3.org/2000/svg" xmlns:xlink="http://www.w3.org/1999/xlink" viewBox="0 0 409.6 387.59"><defs><style>.cls-1{fill:none;}.cls-2{clip-path:url(#clip-path);}</style><clipPath id="clip-path" transform="translate(0 -0.6)"><rect class="cls-1" width="410" height="389"/></clipPath></defs><title>Horn</title><g id="Layer_2" data-name="Layer 2"><g id="Layer_1-2" data-name="Layer 1"><g class="cls-2"><path d="M109.57,247.19a8,8,0,1,0-10.92-2.93,8,8,0,0,0,10.92,2.93Z" transform="translate(0 -0.6)"/><path d="M76.79,302.4l40.28,69.79a32,32,0,0,0,55.43-32l-24-41.58,20.79-12a8,8,0,0,0,2.92-10.92l-10.4-18L315,227.61a24,24,0,0,0,19.45-36L307.91,145.6l17-25.73a8,8,0,0,0,.25-8.41l-16-27.71a8,8,0,0,0-7.41-4L271,81.61,241.45,30.49a23.81,23.81,0,0,0-20.49-12h-.3a23.79,23.79,0,0,0-20.21,11.06L96,162.68,28,201.91A56,56,0,0,0,76.79,302.4Zm81.86,45.79a16,16,0,1,1-27.72,16l-40-69.29,27.72-16c46.29,80.19,39.25,68,40,69.29ZM140.5,284.76l-8-13.86,13.86-8,8,13.86ZM297.77,96l11.05,19.15L299,130.11l-19-33ZM213.83,38.32a8,8,0,0,1,13.76.16l93,161.17a8,8,0,0,1-6.73,12,28.68,28.68,0,0,0-4.39.74L211.09,41.91c2.07-2.66,2.33-2.92,2.74-3.59ZM200.45,55.47l92.47,160.18L153.35,243l-42.44-73.5ZM21.36,270.4A40,40,0,0,1,36,215.76l62.36-36,40,69.28L76,285.05A40.06,40.06,0,0,1,21.36,270.4Z" transform="translate(0 -0.6)"/><path d="M84.79,252.26a8,8,0,0,0-10.93-2.93l-13.86,8a8,8,0,0,1-10.93-2.93,8,8,0,1,0-13.85,8A24,24,0,0,0,68,271.19l13.86-8a8,8,0,0,0,2.93-10.93Z" transform="translate(0 -0.6)"/><path d="M397.71,35.6,353.13,60.4a8,8,0,0,0,7.78,14l44.58-24.8a8,8,0,1,0-7.78-14Z" transform="translate(0 -0.6)"/><path d="M393,118.45l-30.91-8.28A8,8,0,1,0,358,125.63l30.92,8.28A8,8,0,0,0,393,118.45Z" transform="translate(0 -0.6)"/><path d="M315.36,6.53l-8.29,30.91a8,8,0,0,0,15.45,4.15l8.29-30.92a8,8,0,0,0-15.45-4.14Z" transform="translate(0 -0.6)"/></g></g></g></svg>