<svg id="icon_6" xmlns="http://www.w3.org/2000/svg" width="95" height="95" viewBox="0 0 95 95">
  <defs>
    <style>
      .cls-1 {
        fill: #e9a581;
      }

      .cls-1, .cls-2 {
        fill-rule: evenodd;
      }
    </style>
  </defs>
  <path id="box" class="cls-1" d="M1002.81,1763.87V1764H952v-47.13h0.009c0-.13-0.009-0.25-0.009-0.37A47.5,47.5,0,1,1,1002.81,1763.87Z" transform="translate(-952 -1669)"/>
  <path id="icon_6-2" data-name="icon_6" class="cls-2" d="M1023.18,1700H973.82a1.859,1.859,0,0,0-1.82,1.89v32.87a1.861,1.861,0,0,0,1.82,1.9h17.691v3.55h-4.332a1.9,1.9,0,0,0,0,3.79h22.641a1.9,1.9,0,0,0,0-3.79h-4.33v-3.55h17.69a1.864,1.864,0,0,0,1.82-1.9v-32.87A1.862,1.862,0,0,0,1023.18,1700Zm-21.33,40.21h-6.7v-3.55h6.7v3.55Zm19.51-7.34h-2.07v-1.6a1.822,1.822,0,1,0-3.64,0v1.6h-2.99v-1.6a1.822,1.822,0,1,0-3.64,0v1.6H975.64v-29.08h45.72v29.08Z" transform="translate(-952 -1669)"/>
</svg>
