<svg id="icon_1" xmlns="http://www.w3.org/2000/svg" width="95" height="95" viewBox="0 0 95 95">
  <defs>
    <style>
      .cls-1 {
        fill: #e9a581;
      }

      .cls-1, .cls-2 {
        fill-rule: evenodd;
      }
    </style>
  </defs>
  <path id="box" class="cls-1" d="M497.814,1069.87V1070H447v-47.13h0.009c0-.13-0.009-0.25-0.009-0.37A47.5,47.5,0,1,1,497.814,1069.87Z" transform="translate(-447 -975)"/>
  <path id="icon_1-2" data-name="icon_1" class="cls-2" d="M468.686,1023.64a4.7,4.7,0,0,1,6.507.4l4.632,4.99a4.742,4.742,0,0,1,4.515-3.34h8.266c0.627,0,.837-0.24,1.927-1.09a11.027,11.027,0,0,1,14.535.04l3.038,2.69a4.674,4.674,0,0,1,4.333-.06l3.485,1.75a1.582,1.582,0,0,1,.705,2.12l-9.455,18.99a1.577,1.577,0,0,1-2.115.71l-3.485-1.75a4.747,4.747,0,0,1-2.611-4.42H484.34a11.049,11.049,0,0,1-8.824-4.43l-7.566-10.12A4.752,4.752,0,0,1,468.686,1023.64Zm38.3,22.62,2.075,1.04,8.047-16.16-2.076-1.04a1.576,1.576,0,0,0-2.114.71l-6.637,13.32A1.592,1.592,0,0,0,506.984,1046.26Zm-36.512-18.04,7.565,10.13a7.906,7.906,0,0,0,6.3,3.16h19.723l5.905-11.86-2.983-2.64a7.877,7.877,0,0,0-10.411,0c-1.748,1.55-2.835,1.84-3.968,1.84H484.34a1.585,1.585,0,0,0,0,3.17h8.049a1.58,1.58,0,0,1,0,3.16h-9.105a4.735,4.735,0,0,1-3.459-1.51l-6.938-7.48A1.58,1.58,0,0,0,470.472,1028.22Zm17.188-20.43a6.3,6.3,0,0,1-1.744-4.36,6.4,6.4,0,0,1,6.3-6.433,6.506,6.506,0,0,1,6.408,6.433,6.235,6.235,0,0,1-1.8,4.38,9.645,9.645,0,0,1,4.954,8.38v1.59a1.58,1.58,0,0,1-1.576,1.58H484.34a1.58,1.58,0,0,1-1.576-1.58v-1.59A9.654,9.654,0,0,1,487.66,1007.79Zm4.56-7.63a3.257,3.257,0,0,0-3.152,3.27,3.163,3.163,0,0,0,3.152,3.17,3.256,3.256,0,0,0,3.256-3.17A3.35,3.35,0,0,0,492.22,1000.16Zm6.408,16.03a6.508,6.508,0,0,0-6.408-6.43,6.379,6.379,0,0,0-6.3,6.43h12.712Z" transform="translate(-447 -975)"/>
</svg>
