<svg id="icon_5" xmlns="http://www.w3.org/2000/svg" width="95" height="95" viewBox="0 0 95 95">
  <defs>
    <style>
      .cls-1 {
        fill: #e9a581;
      }

      .cls-1, .cls-2 {
        fill-rule: evenodd;
      }
    </style>
  </defs>
  <path id="box" class="cls-1" d="M516.814,1763.87V1764H466v-47.13h0.009c0-.13-0.009-0.25-0.009-0.37A47.5,47.5,0,1,1,516.814,1763.87Z" transform="translate(-466 -1669)"/>
  <path id="icon_5-2" data-name="icon_5" class="cls-2" d="M535.2,1716.77a6.816,6.816,0,0,0,2.1-4.94,6.666,6.666,0,1,0-13.331,0,6.823,6.823,0,0,0,.936,3.46,3.418,3.418,0,0,1-1.446-.76l-6.84-5.95a3.7,3.7,0,0,0-4.018-.57,0.69,0.69,0,0,1-1.212,0,3.7,3.7,0,0,0-4.018.57l-6.84,5.95a3.418,3.418,0,0,1-1.446.76,6.823,6.823,0,0,0,.936-3.46,6.667,6.667,0,1,0-13.332,0,6.82,6.82,0,0,0,2.1,4.94,8.489,8.489,0,0,0-3.8,7.12v15.5a1.6,1.6,0,0,0,1.582,1.61h13.556a1.6,1.6,0,0,0,1.582-1.61v-14.76l9.759-8.5a6.087,6.087,0,0,0,.521-0.52,6.087,6.087,0,0,0,.521.52l9.758,8.5v14.76a1.6,1.6,0,0,0,1.582,1.61h13.557a1.6,1.6,0,0,0,1.582-1.61v-15.5A8.49,8.49,0,0,0,535.2,1716.77Zm-4.561-8.5a3.56,3.56,0,1,1-3.5,3.56A3.537,3.537,0,0,1,530.64,1708.27Zm-37.28,0a3.56,3.56,0,1,1-3.5,3.56A3.537,3.537,0,0,1,493.36,1708.27Zm16.06,5.41-10.312,8.99a1.61,1.61,0,0,0-.552,1.22v13.89H488.164v-13.89a5.235,5.235,0,0,1,5.2-5.28h4.9a6.617,6.617,0,0,0,4.338-1.63l6.839-5.96a0.594,0.594,0,0,1,.983.46A2.905,2.905,0,0,1,509.42,1713.68Zm26.416,24.1H525.444v-13.89a1.607,1.607,0,0,0-.553-1.22l-10.311-8.99a2.905,2.905,0,0,1-1-2.2,0.593,0.593,0,0,1,.983-0.46l6.839,5.96a6.617,6.617,0,0,0,4.338,1.63h4.9a5.235,5.235,0,0,1,5.194,5.28v13.89ZM512,1703.11a1.6,1.6,0,0,0,1.582-1.61v-6.89a1.582,1.582,0,1,0-3.164,0v6.89A1.6,1.6,0,0,0,512,1703.11Zm-7.9,1.25a1.567,1.567,0,0,0,2.238,0,1.636,1.636,0,0,0,0-2.28l-3.39-3.44a1.56,1.56,0,0,0-2.237,0,1.621,1.621,0,0,0,0,2.27Zm14.675,0.47a1.58,1.58,0,0,0,1.119-.47l3.389-3.45a1.621,1.621,0,0,0,0-2.27,1.561,1.561,0,0,0-2.238,0l-3.389,3.44a1.634,1.634,0,0,0,0,2.28A1.58,1.58,0,0,0,518.778,1704.83Z" transform="translate(-466 -1669)"/>
</svg>
