<svg id="icon_3" xmlns="http://www.w3.org/2000/svg" width="95" height="95" viewBox="0 0 95 95">
  <defs>
    <style>
      .cls-1 {
        fill: #e9a581;
      }

      .cls-1, .cls-2 {
        fill-rule: evenodd;
      }
    </style>
  </defs>
  <path id="box" class="cls-1" d="M516.814,1428.87V1429H466v-47.13h0.009c0-.13-0.009-0.25-0.009-0.37A47.5,47.5,0,1,1,516.814,1428.87Z" transform="translate(-466 -1334)"/>
  <path id="icon_3-2" data-name="icon_3" class="cls-2" d="M492.568,1407.37c3.353,1.79,7.957,2.63,14.487,2.63,5.313,0,9.312-.55,12.419-1.72a4.828,4.828,0,0,0,3.694,1.72h13a4.833,4.833,0,0,0,3.6-8.06,13.6,13.6,0,0,1,1.235-9.66,4.828,4.828,0,0,1,0-6.45,4.833,4.833,0,0,0-4.834-4.83h-13a3.587,3.587,0,0,0-.465.02,22.061,22.061,0,0,0-5.6-4.86,4.831,4.831,0,0,0-1.534-7.59l2.687-8.24a1.615,1.615,0,0,0-1.532-2.11h-5.111a4.835,4.835,0,0,0-9.115,0h-5.11a1.614,1.614,0,0,0-1.532,2.11l2.686,8.24a4.829,4.829,0,0,0-1.532,7.59A22.979,22.979,0,0,0,486,1395.5C486,1401.04,488.21,1405.04,492.568,1407.37Zm45.209-15.09a1.618,1.618,0,0,1-1.611,1.61h-13a1.615,1.615,0,0,1,0-3.23h13A1.62,1.62,0,0,1,537.777,1392.28Zm0,6.44a1.611,1.611,0,0,1-1.611,1.61h-13a1.61,1.61,0,1,1,0-3.22h13A1.611,1.611,0,0,1,537.777,1398.72Zm-1.611,8.06h-13a1.615,1.615,0,0,1,0-3.23h13A1.615,1.615,0,0,1,536.166,1406.78Zm1.611-20.95a1.611,1.611,0,0,1-1.611,1.61h-13a1.61,1.61,0,1,1,0-3.22h13A1.611,1.611,0,0,1,537.777,1385.83Zm-24.323-11.28H500.609a1.61,1.61,0,0,1,0-3.22h12.9a1.61,1.61,0,0,1,0,3.22h-0.046Zm-9.622-13.1a1.618,1.618,0,0,0,1.611-1.62,1.612,1.612,0,0,1,3.223,0v3.23a1.612,1.612,0,0,0,3.223,0v-1.61H514.5l-2.172,6.66H501.779l-2.172-6.66h4.225Zm-2.908,16.32h12.255a18.254,18.254,0,0,1,6.519,4.7,14.619,14.619,0,0,1-1.364,9.81,4.815,4.815,0,0,1,0,6.44,4.828,4.828,0,0,1,0,6.45c0,0.03,0,.06,0,0.09-2.725,1.03-6.356,1.52-11.281,1.52-5.979,0-10.1-.72-12.966-2.25-3.32-1.78-4.866-4.65-4.866-9.03A19.567,19.567,0,0,1,500.924,1377.77Z" transform="translate(-466 -1334)"/>
</svg>
