<svg id="icon_4" xmlns="http://www.w3.org/2000/svg" width="95" height="95" viewBox="0 0 95 95">
  <defs>
    <style>
      .cls-1 {
        fill: #e9a581;
      }

      .cls-1, .cls-2 {
        fill-rule: evenodd;
      }
    </style>
  </defs>
  <path id="box" class="cls-1" d="M1002.81,1428.87V1429H952v-47.13h0.009c0-.13-0.009-0.25-0.009-0.37A47.5,47.5,0,1,1,1002.81,1428.87Z" transform="translate(-952 -1334)"/>
  <path id="icon_4-2" data-name="icon_4" class="cls-2" d="M1019.42,1367.96a4.481,4.481,0,1,0,0-8.96,4.5,4.5,0,0,0-4.23,2.99h-12.21V1359h-8.962v2.99H981.807a4.488,4.488,0,0,0-4.225-2.99,4.481,4.481,0,1,0,0,8.96,4.493,4.493,0,0,0,4.225-2.98h5.552a22.632,22.632,0,0,0-10.822,15.04H973v8.96h9.064v-8.96H979.6a19.586,19.586,0,0,1,14.422-14.52v2.46h8.962v-2.46a19.572,19.572,0,0,1,14.42,14.52h-2.46v8.96H1024v-8.96h-3.54a22.617,22.617,0,0,0-10.82-15.04h5.55A4.488,4.488,0,0,0,1019.42,1367.96Zm0-5.97a1.5,1.5,0,1,1,0,2.99A1.5,1.5,0,1,1,1019.42,1361.99Zm-41.838,2.99a1.5,1.5,0,1,1,0-2.99A1.5,1.5,0,0,1,977.582,1364.98Zm1.494,21.01h-3.088v-2.98h3.088v2.98Zm20.918-21.01h-2.988v-2.99h2.988v2.99Zm17.926,18.03h3.09v2.98h-3.09v-2.98Zm-19.42-11.77L984.8,1391.91l6.084,10.74a7.472,7.472,0,0,0-2.838,5.86V1410h20.919v-1.49a7.464,7.464,0,0,0-2.84-5.86l6.08-10.74Zm0,17.74a1.5,1.5,0,1,1-1.494,1.5A1.5,1.5,0,0,1,998.5,1388.98Zm-7.215,18.03a4.492,4.492,0,0,1,4.227-2.99h5.978a4.474,4.474,0,0,1,4.22,2.99H991.285Zm12.165-5.71a7.418,7.418,0,0,0-1.96-.26h-5.978a7.489,7.489,0,0,0-1.965.26l-5.248-9.27,8.707-13.13v7.35a4.48,4.48,0,1,0,2.988,0v-7.35l8.706,13.13Z" transform="translate(-952 -1334)"/>
</svg>
