<svg id="icon_2" xmlns="http://www.w3.org/2000/svg" width="95" height="95" viewBox="0 0 95 95">
  <defs>
    <style>
      .cls-1 {
        fill: #e9a581;
      }

      .cls-1, .cls-2 {
        fill-rule: evenodd;
      }
    </style>
  </defs>
  <path id="box" class="cls-1" d="M1002.81,1069.87V1070H952v-47.13h0.009c0-.13-0.009-0.25-0.009-0.37A47.5,47.5,0,1,1,1002.81,1069.87Z" transform="translate(-952 -975)"/>
  <path id="icon_2-2" data-name="icon_2" class="cls-2" d="M1021.83,1043.09l-6.78-14.71a20.4,20.4,0,0,0,2.96-10.62,19.965,19.965,0,1,0-39.924,0,20.479,20.479,0,0,0,2.953,10.62l-6.776,14.71a1.557,1.557,0,0,0,.26,1.7,1.5,1.5,0,0,0,1.657.41l6.719-2.47,2.446,6.8a1.527,1.527,0,0,0,2.834.12l5.559-12.06a19.96,19.96,0,0,0,8.612,0l5.56,12.06a1.532,1.532,0,0,0,2.84-.12l2.44-6.8,6.72,2.47a1.5,1.5,0,0,0,1.66-.41A1.56,1.56,0,0,0,1021.83,1043.09Zm-34.868,1.85-1.7-4.74a1.545,1.545,0,0,0-.795-0.87,1.455,1.455,0,0,0-1.174-.05l-4.678,1.72,4.5-9.78a20.041,20.041,0,0,0,7.656,5.45Zm11.085-9.98a17.2,17.2,0,1,1,16.893-17.2A17.069,17.069,0,0,1,998.047,1034.96Zm14.753,4.32a1.531,1.531,0,0,0-1.97.92l-1.7,4.74-3.81-8.27a20.078,20.078,0,0,0,7.66-5.45l4.5,9.78Zm-14.753-35.51a14.042,14.042,0,1,0,13.823,13.99A13.917,13.917,0,0,0,998.047,1003.77Zm0,24.97a10.932,10.932,0,1,1,10.743-10.98A10.881,10.881,0,0,1,998.047,1028.74Z" transform="translate(-952 -975)"/>
</svg>
