<svg id="Inst" xmlns="http://www.w3.org/2000/svg" width="29" height="29" viewBox="0 0 29 29">
  <defs>
    <style>
      .cls-1 {
        fill: #ffd200;
        fill-opacity: 0;
        stroke: #282828;
        stroke-linejoin: round;
        stroke-width: 1px;
      }

      .cls-2 {
        fill: #282828;
        fill-rule: evenodd;
      }
    </style>
  </defs>
  <circle id="round" class="cls-1" cx="14.5" cy="14.5" r="14"/>
  <path id="Inst-2" data-name="Inst" class="cls-2" d="M1447.58,2327h-7.16a4.421,4.421,0,0,0-4.42,4.42v7.16a4.421,4.421,0,0,0,4.42,4.42h7.16a4.421,4.421,0,0,0,4.42-4.42v-7.16A4.421,4.421,0,0,0,1447.58,2327Zm3,11.58a3,3,0,0,1-3,3h-7.16a3,3,0,0,1-3-3v-7.16a3,3,0,0,1,3-3h7.16a3,3,0,0,1,3,3v7.16h0Zm-6.58-7.7a4.12,4.12,0,1,0,4.12,4.12A4.127,4.127,0,0,0,1444,2330.88Zm0,6.82a2.7,2.7,0,1,1,2.7-2.7A2.7,2.7,0,0,1,1444,2337.7Zm4.3-8.03a1.02,1.02,0,0,0-.74.31,1.039,1.039,0,1,0,1.47,1.47A1.045,1.045,0,0,0,1448.3,2329.67Z" transform="translate(-1429.5 -2320.5)"/>
</svg>
