<?xml version="1.0" encoding="UTF-8"?>
<svg xmlns="http://www.w3.org/2000/svg" xmlns:xlink="http://www.w3.org/1999/xlink" width="375pt" height="374.999991pt" viewBox="0 0 375 374.999991" version="1.2">
<defs>
<clipPath id="clip1">
  <path d="M 14.300781 104 L 342 104 L 342 198 L 14.300781 198 Z M 14.300781 104 "/>
</clipPath>
<clipPath id="clip2">
  <path d="M 41 45 L 360.800781 45 L 360.800781 349.636719 L 41 349.636719 Z M 41 45 "/>
</clipPath>
<clipPath id="clip3">
  <path d="M 33 25.636719 L 299 25.636719 L 299 340 L 33 340 Z M 33 25.636719 "/>
</clipPath>
</defs>
<g id="surface1">
<g clip-path="url(#clip1)" clip-rule="nonzero">
<path style=" stroke:none;fill-rule:nonzero;fill:rgb(90.19928%,63.919067%,45.878601%);fill-opacity:1;" d="M 61.328125 177.226562 C 69.230469 178.042969 77.570312 179.171875 85.246094 180.367188 C 84.558594 184.929688 84.152344 189.546875 84.066406 194.148438 C 73.265625 194.488281 58.925781 195.09375 49.964844 196.078125 C 44.480469 196.65625 39.179688 197.667969 33.9375 197.878906 C 28.691406 198.078125 23.488281 197.5 18.242188 194.347656 C 15.09375 192.472656 14.222656 188.195312 14.839844 184.238281 C 15.457031 180.269531 17.976562 176.761719 21.054688 176.074219 C 34.582031 173.1875 47.914062 175.960938 61.328125 177.226562 Z M 339.878906 110.613281 C 337.460938 106.066406 332.625 103.320312 328.449219 106.035156 C 317.816406 112.890625 307.566406 120.324219 296.976562 127.222656 C 294.855469 128.644531 287.992188 133.21875 280.722656 138.0625 C 281.453125 139.046875 282.171875 140.046875 282.875 141.074219 C 284.785156 143.863281 286.460938 146.734375 287.964844 149.675781 C 293.097656 147.410156 298.046875 145.171875 301.644531 143.511719 C 313.980469 137.867188 326.28125 130.164062 337.996094 123.351562 C 342.269531 120.929688 342.382812 115.117188 339.878906 110.613281 Z M 339.878906 110.613281 "/>
</g>
<path style=" stroke:none;fill-rule:nonzero;fill:rgb(93.328857%,67.83905%,36.079407%);fill-opacity:1;" d="M 121.949219 270.042969 C 125.984375 272.898438 130.230469 275.476562 134.632812 277.730469 C 133.015625 282.035156 131.425781 286.359375 129.878906 290.695312 C 125.210938 303.6875 120.808594 316.808594 115.214844 329.550781 C 113.511719 333.460938 108.449219 334.320312 104.019531 332.675781 C 99.605469 330.972656 96.003906 327.15625 97.285156 322.917969 C 101.390625 309.152344 108.546875 296.085938 114.820312 283.21875 C 116.984375 278.898438 119.433594 274.433594 121.949219 270.042969 Z M 338.390625 268.128906 C 326.128906 261.554688 313.375 256.273438 300.773438 250.601562 C 296.894531 248.871094 293.039062 247.09375 289.203125 245.28125 C 287.191406 249.546875 284.757812 253.613281 281.804688 257.429688 C 285.09375 259.992188 288.414062 262.484375 291.675781 264.75 C 303.503906 272.789062 315.355469 281.742188 328.703125 287.300781 C 332.851562 289.046875 337.617188 285.332031 339.949219 280.515625 C 342.355469 275.703125 342.160156 270.125 338.390625 268.128906 Z M 122.792969 46.164062 C 120.613281 41.785156 114.976562 41.195312 110.585938 43.417969 C 108.394531 44.472656 106.496094 46.09375 105.484375 47.980469 C 104.484375 49.921875 104.386719 52.160156 105.59375 54.355469 C 111.742188 65.421875 118.460938 76.136719 124.648438 87.15625 C 126.167969 89.789062 131.695312 99.347656 136.898438 108.34375 C 136.898438 108.359375 136.910156 108.375 136.910156 108.375 C 140.804688 106.386719 144.828125 104.644531 148.933594 103.121094 C 146.191406 96.027344 143.195312 88.425781 141.144531 83.425781 C 136.054688 70.871094 128.980469 58.269531 122.792969 46.164062 Z M 122.792969 46.164062 "/>
<g clip-path="url(#clip2)" clip-rule="nonzero">
<path style=" stroke:none;fill-rule:nonzero;fill:rgb(80.778503%,56.079102%,52.549744%);fill-opacity:1;" d="M 195.394531 314.527344 C 196.335938 325.464844 199.207031 335.84375 193.707031 346.230469 C 192.035156 349.300781 188.28125 350.3125 184.765625 349.777344 C 181.25 349.300781 178.027344 346.921875 177.3125 343.867188 C 174.246094 330.449219 176.15625 316.992188 176.75 303.503906 C 177 298.523438 177.351562 293.355469 177.773438 288.273438 C 183.148438 288.527344 188.53125 288.5 193.875 288.300781 C 194.242188 297.523438 194.734375 307.628906 195.394531 314.527344 Z M 265.578125 48.683594 C 259.082031 60.988281 253.808594 73.769531 248.238281 86.398438 C 245.425781 92.816406 242.542969 99.195312 239.535156 105.53125 C 243.65625 107.34375 247.664062 109.402344 251.53125 111.722656 C 255.425781 106.261719 259.320312 100.546875 262.667969 95.042969 C 269.992188 82.75 278.191406 70.476562 283.394531 57.003906 C 286.796875 48.417969 269.515625 40.644531 265.578125 48.683594 Z M 54.101562 94.125 C 50.191406 92.113281 45.578125 94.886719 43.160156 99.082031 C 40.757812 103.292969 40.40625 108.484375 43.988281 110.851562 C 55.507812 118.609375 67.671875 125.238281 79.636719 132.152344 C 85.980469 135.78125 92.265625 139.5 98.480469 143.328125 C 100.785156 139.484375 103.386719 135.839844 106.226562 132.402344 C 100.898438 127.6875 95.246094 122.875 89.761719 118.71875 C 78.257812 110.117188 66.867188 100.699219 54.101562 94.125 Z M 356.515625 184.859375 C 345.84375 179.496094 335.691406 183.15625 324.777344 184.660156 C 317.707031 185.730469 307.214844 186.757812 297.808594 187.5625 C 298.160156 192.726562 298.214844 197.921875 298.046875 203.117188 C 303.515625 203.484375 309.113281 203.765625 314.5 203.917969 C 327.984375 204.230469 341.457031 205.945312 354.816406 202.355469 C 357.921875 201.527344 359.960938 198.035156 360.480469 194.261719 C 360.875 190.476562 359.75 186.492188 356.515625 184.859375 Z M 356.515625 184.859375 "/>
</g>
<g clip-path="url(#clip3)" clip-rule="nonzero">
<path style=" stroke:none;fill-rule:nonzero;fill:rgb(93.728638%,76.469421%,57.249451%);fill-opacity:1;" d="M 297.792969 187.5625 C 296.878906 174.371094 293.96875 161.445312 287.949219 149.675781 C 286.445312 146.734375 284.773438 143.863281 282.859375 141.074219 C 282.15625 140.046875 281.441406 139.046875 280.707031 138.0625 C 272.621094 127.179688 262.667969 118.410156 251.515625 111.722656 C 247.648438 109.402344 243.640625 107.34375 239.519531 105.53125 C 227.160156 100.082031 213.757812 96.898438 200.078125 95.941406 C 200.835938 88.214844 201.457031 79.824219 201.820312 71.910156 C 202.339844 58.425781 204.28125 44.953125 200.851562 31.523438 C 200.050781 28.382812 196.574219 26.230469 192.792969 25.75 C 190.910156 25.496094 188.953125 25.625 187.265625 26.214844 C 185.59375 26.878906 184.171875 27.976562 183.34375 29.550781 C 177.859375 40.152344 181.359375 50.359375 182.710938 61.324219 C 183.949219 70.363281 185.03125 84.917969 185.734375 95.757812 C 183.976562 95.84375 182.234375 95.941406 180.476562 96.082031 C 169.746094 97 159.058594 99.363281 148.921875 103.109375 C 144.8125 104.628906 140.792969 106.375 136.898438 108.359375 C 129.640625 112.046875 122.792969 116.511719 116.59375 121.789062 C 112.808594 125 109.363281 128.5625 106.214844 132.375 C 103.375 135.8125 100.785156 139.472656 98.464844 143.300781 C 91.703125 154.519531 87.246094 167.246094 85.246094 180.339844 C 84.558594 184.898438 84.152344 189.519531 84.066406 194.121094 C 83.839844 206.214844 85.769531 218.277344 89.972656 229.441406 C 83.628906 232.425781 77.105469 235.550781 72.675781 237.761719 C 60.457031 243.746094 48.476562 251.796875 37 259.046875 C 32.839844 261.582031 32.980469 267.71875 35.863281 272.351562 C 38.757812 276.996094 43.695312 279.980469 47.800781 276.882812 C 58.011719 269.410156 67.753906 261.414062 77.964844 253.910156 C 80.171875 252.25 87.707031 246.601562 95.316406 240.902344 C 101.839844 252.515625 111.121094 262.34375 121.949219 270.015625 C 125.984375 272.871094 130.230469 275.449219 134.632812 277.699219 C 135.8125 278.304688 137.007812 278.898438 138.21875 279.460938 C 150.550781 285.203125 164.09375 287.613281 177.789062 288.257812 C 183.160156 288.511719 188.546875 288.484375 193.890625 288.289062 C 199.375 288.074219 204.816406 287.695312 210.144531 287.21875 C 218.117188 286.5 226.570312 285.429688 234.921875 283.628906 C 236.117188 288.175781 237.257812 292.46875 238.15625 295.707031 C 241.757812 308.785156 247.253906 322.1875 251.894531 334.96875 C 253.539062 339.613281 258.855469 340.785156 263.511719 339.234375 C 268.152344 337.726562 271.820312 333.632812 269.910156 328.945312 C 265.167969 317.203125 259.785156 305.742188 254.988281 294.046875 C 254.144531 292.058594 251.726562 286.34375 248.957031 279.769531 C 259.109375 276.277344 268.542969 271.253906 276.054688 263.90625 C 278.164062 261.835938 280.0625 259.667969 281.804688 257.414062 C 284.742188 253.597656 287.175781 249.53125 289.203125 245.265625 C 294.9375 233.117188 297.257812 219.433594 297.949219 205.679688 C 297.992188 204.820312 298.019531 203.960938 298.046875 203.101562 C 298.214844 197.921875 298.160156 192.726562 297.792969 187.5625 Z M 119.753906 171.527344 C 118.871094 167.894531 119.503906 164.261719 118.742188 160.65625 C 118.347656 158.785156 121.21875 157.996094 121.613281 159.871094 C 123.046875 166.699219 121.148438 181.507812 130.765625 182.941406 C 137.726562 184 141.972656 179.957031 142.59375 173.203125 C 142.972656 169.046875 142.875 164.8125 142.875 160.644531 C 142.875 158.730469 145.839844 158.730469 145.839844 160.644531 C 145.828125 171.34375 147.050781 186.109375 132.523438 186.039062 C 128.011719 186.011719 124.4375 184.335938 122.441406 180.171875 C 121.175781 177.539062 120.445312 174.355469 119.753906 171.527344 Z M 214.054688 208.886719 C 200.964844 219.769531 182.542969 218.449219 168.367188 210.324219 C 166.707031 209.367188 168.199219 206.804688 169.871094 207.761719 C 182.765625 215.140625 199.949219 216.773438 211.960938 206.789062 C 213.421875 205.566406 215.53125 207.664062 214.054688 208.886719 Z M 248.421875 186.054688 C 243.910156 186.027344 240.335938 184.351562 238.339844 180.183594 C 237.074219 177.539062 236.34375 174.355469 235.652344 171.527344 C 234.769531 167.894531 235.402344 164.261719 234.640625 160.65625 C 234.246094 158.785156 237.117188 157.996094 237.511719 159.871094 C 238.945312 166.699219 237.046875 181.507812 246.664062 182.941406 C 253.625 184 257.871094 179.957031 258.492188 173.203125 C 258.855469 169.257812 258.773438 165.261719 258.773438 161.304688 C 258.773438 161.082031 258.773438 160.871094 258.773438 160.644531 C 258.773438 158.730469 261.738281 158.730469 261.738281 160.644531 C 261.738281 160.714844 261.738281 160.800781 261.738281 160.871094 C 261.738281 171.554688 262.851562 186.125 248.421875 186.054688 Z M 248.421875 186.054688 "/>
</g>
<path style=" stroke:none;fill-rule:nonzero;fill:rgb(19.219971%,18.429565%,22.749329%);fill-opacity:1;" d="M 145.839844 160.65625 C 145.828125 171.355469 147.050781 186.125 132.523438 186.054688 C 128.011719 186.027344 124.4375 184.351562 122.441406 180.183594 C 121.175781 177.539062 120.445312 174.355469 119.753906 171.527344 C 118.871094 167.894531 119.503906 164.261719 118.742188 160.65625 C 118.347656 158.785156 121.21875 157.996094 121.613281 159.871094 C 123.046875 166.699219 121.148438 181.507812 130.765625 182.941406 C 137.726562 184 141.972656 179.957031 142.59375 173.203125 C 142.972656 169.046875 142.875 164.8125 142.875 160.644531 C 142.875 158.742188 145.839844 158.742188 145.839844 160.65625 Z M 261.738281 160.882812 C 261.738281 160.8125 261.738281 160.730469 261.738281 160.65625 C 261.738281 158.742188 258.773438 158.742188 258.773438 160.65625 C 258.773438 160.882812 258.773438 161.09375 258.773438 161.320312 C 258.773438 165.277344 258.855469 169.273438 258.492188 173.214844 C 257.871094 179.972656 253.625 184 246.664062 182.957031 C 237.046875 181.507812 238.945312 166.710938 237.511719 159.882812 C 237.117188 158.011719 234.246094 158.800781 234.640625 160.671875 C 235.402344 164.277344 234.769531 167.910156 235.652344 171.539062 C 236.34375 174.355469 237.074219 177.550781 238.339844 180.199219 C 240.335938 184.363281 243.910156 186.039062 248.421875 186.070312 C 262.851562 186.125 261.738281 171.554688 261.738281 160.882812 Z M 211.960938 206.777344 C 199.9375 216.773438 182.765625 215.140625 169.871094 207.75 C 168.214844 206.792969 166.707031 209.367188 168.367188 210.308594 C 182.542969 218.433594 200.964844 219.757812 214.054688 208.875 C 215.53125 207.664062 213.421875 205.566406 211.960938 206.777344 Z M 211.960938 206.777344 "/>
</g>
</svg>
