<svg xmlns="http://www.w3.org/2000/svg" viewBox="0 0 409.6 409.6"><title>Planshet</title><g id="Layer_2" data-name="Layer 2"><g id="Layer_1-2" data-name="Layer 1"><path d="M136,281.6a8,8,0,1,0,8,8,8,8,0,0,0-8-8Z"/><path d="M40,249.6a8,8,0,1,0,8,8,8,8,0,0,0-8-8Z"/><path d="M369.6,105.6H268.8V32a32,32,0,0,0-64,0v73.6H40a40,40,0,0,0-40,40v224a40,40,0,0,0,40,40H369.6a40,40,0,0,0,40-40v-224a40,40,0,0,0-40-40ZM220.8,32a16,16,0,0,1,32,0v8h-32Zm0,24h32V225.6h-32Zm31,185.6c-.2.51-.41,1-.65,1.49L236.8,271.71l-14.32-28.64a15.93,15.93,0,0,1-.64-1.47ZM80,121.6H204.8v16H80Zm0,32H204.8v82.34a32,32,0,0,0,3.38,14.3l15.67,31.36H168a8,8,0,0,0,0,16H300.8a8,8,0,1,0,0-16H249.74l15.67-31.34a32.05,32.05,0,0,0,3.39-14.32V153.6h92.8v208H80Zm-16,240H40a24,24,0,0,1-24-24v-224a24,24,0,0,1,24-24H64Zm329.6-24a24,24,0,0,1-24,24H80v-16H369.6a8,8,0,0,0,8-8v-224a8,8,0,0,0-8-8H268.8v-16H369.6a24,24,0,0,1,24,24Z"/><path d="M32,193.6v32a8,8,0,1,0,16,0v-32a8,8,0,0,0-16,0Z"/><path d="M40,281.6a8,8,0,0,0-8,8v32a8,8,0,0,0,16,0v-32a8,8,0,0,0-8-8Z"/></g></g></svg>