<svg xmlns="http://www.w3.org/2000/svg" viewBox="0 0 409.6 409.6"><title>roliki</title><g id="Layer_2" data-name="Layer 2"><g id="Layer_1-2" data-name="Layer 1"><path d="M241.6,32a8,8,0,1,0,8,8,8,8,0,0,0-8-8Z"/><path d="M305.6,32h-32a8,8,0,0,0,0,16h32a8,8,0,0,0,0-16Z"/><path d="M369.6,32h-32a8,8,0,0,0,0,16h32a8,8,0,0,0,0-16Z"/><path d="M385.6,0H24A24,24,0,0,0,0,24V385.6a24,24,0,0,0,24,24H385.6a24,24,0,0,0,24-24V24a24,24,0,0,0-24-24Zm8,385.6a8,8,0,0,1-8,8H24a8,8,0,0,1-8-8V80H393.6Zm0-321.6H16V24a8,8,0,0,1,8-8H385.6a8,8,0,0,1,8,8Z"/><path d="M72,276.8H337.6a24,24,0,0,0,24-24v-112a24,24,0,0,0-24-24H72a24,24,0,0,0-24,24v112a24,24,0,0,0,24,24Zm-8-136a8,8,0,0,1,8-8H337.6a8,8,0,0,1,8,8v112a8,8,0,0,1-8,8H72a8,8,0,0,1-8-8Z"/><path d="M56,340.8h62.18a24,24,0,0,0,45.25,0H353.6a8,8,0,0,0,0-16H163.43a24,24,0,0,0-45.25,0H56a8,8,0,0,0,0,16Zm84.8-16a8,8,0,1,1-8,8,8,8,0,0,1,8-8Z"/><path d="M168.44,235.51a8,8,0,0,0,7.61.6l72-32a8,8,0,0,0,0-14.62l-72-32a8,8,0,0,0-11.25,7.31v64a8,8,0,0,0,3.64,6.71Zm12.36-58.4,44.3,19.69-44.3,19.69Z"/></g></g></svg>