<svg xmlns="http://www.w3.org/2000/svg" viewBox="0 0 32.57 62.51"><defs><style>.cls-1{fill:#c6c6c6;}</style></defs><title>strelochka_1</title><g id="Layer_2" data-name="Layer 2"><g id="OBJECTS"><path class="cls-1" d="M15.81,1.79c10,8.22,16.58,20.56,14.08,33.72C27.35,48.82,16.4,56.65,3.36,56.66l.08,0c2-1.22,4.4-2.3,5.52-4.52a1,1,0,0,0-1.78-1,12.87,12.87,0,0,1-4.31,3.43C1.9,55.05.19,55.73,0,57s1.08,1.78,2,2.27c2.08,1.08,4.16,2.24,6.32,3.15a.8.8,0,0,0,.81-1.37c-1.44-1-3-1.79-4.48-2.65l-.59-.34c12.54,2,24.12-8,27.35-19.72,4-14.49-3-28.88-14.11-38.09C16.27-.61,14.74.9,15.81,1.79Z"/></g></g></svg>