<svg id="TG_icon" xmlns="http://www.w3.org/2000/svg" width="47.938" height="46.812" viewBox="0 0 47.938 46.812">
  <metadata><?xpacket begin="﻿" id="W5M0MpCehiHzreSzNTczkc9d"?>
<x:xmpmeta xmlns:x="adobe:ns:meta/" x:xmptk="Adobe XMP Core 5.6-c138 79.159824, 2016/09/14-01:09:01        ">
   <rdf:RDF xmlns:rdf="http://www.w3.org/1999/02/22-rdf-syntax-ns#">
      <rdf:Description rdf:about=""/>
   </rdf:RDF>
</x:xmpmeta>
                                                                                                    
                                                                                                    
                                                                                                    
                                                                                                    
                                                                                                    
                                                                                                    
                                                                                                    
                                                                                                    
                                                                                                    
                                                                                                    
                                                                                                    
                                                                                                    
                                                                                                    
                                                                                                    
                                                                                                    
                                                                                                    
                                                                                                    
                                                                                                    
                                                                                                    
                                                                                                    
                           
<?xpacket end="w"?></metadata>
<defs>
    <style>
      .cls-1 {
        fill: #e9a581;
      }

      .cls-2 {
        fill-rule: evenodd;
      }
    </style>
  </defs>
  <rect id="box" class="cls-1" width="47.938" height="46.812" rx="7" ry="7"/>
  <path id="tg" class="cls-2" d="M41.161,177.486L47.09,179.7l2.295,7.365a0.7,0.7,0,0,0,1.108.333l3.3-2.689a0.987,0.987,0,0,1,1.2-.033l5.96,4.319a0.7,0.7,0,0,0,1.095-.422l4.366-20.962a0.7,0.7,0,0,0-.936-0.792l-24.33,9.367A0.7,0.7,0,0,0,41.161,177.486Zm7.853,1.033L60.6,171.4a0.2,0.2,0,0,1,.244.319l-9.562,8.871a1.976,1.976,0,0,0-.614,1.184l-0.326,2.409a0.3,0.3,0,0,1-.585.042L48.5,179.829A1.163,1.163,0,0,1,49.014,178.519Z" transform="translate(-31 -154.188)"/>
</svg>
