<svg id="Viber_icon" xmlns="http://www.w3.org/2000/svg" width="47.938" height="46.812" viewBox="0 0 47.938 46.812">
  <metadata><?xpacket begin="﻿" id="W5M0MpCehiHzreSzNTczkc9d"?>
<x:xmpmeta xmlns:x="adobe:ns:meta/" x:xmptk="Adobe XMP Core 5.6-c138 79.159824, 2016/09/14-01:09:01        ">
   <rdf:RDF xmlns:rdf="http://www.w3.org/1999/02/22-rdf-syntax-ns#">
      <rdf:Description rdf:about=""/>
   </rdf:RDF>
</x:xmpmeta>
                                                                                                    
                                                                                                    
                                                                                                    
                                                                                                    
                                                                                                    
                                                                                                    
                                                                                                    
                                                                                                    
                                                                                                    
                                                                                                    
                                                                                                    
                                                                                                    
                                                                                                    
                                                                                                    
                                                                                                    
                                                                                                    
                                                                                                    
                                                                                                    
                                                                                                    
                                                                                                    
                           
<?xpacket end="w"?></metadata>
<defs>
    <style>
      .cls-1 {
        fill: #e9a581;
      }

      .cls-2 {
        fill-rule: evenodd;
      }
    </style>
  </defs>
  <rect id="box" class="cls-1" width="47.938" height="46.812" rx="7" ry="7"/>
  <path id="viber" class="cls-2" d="M119.8,166.663a31.761,31.761,0,0,0-12.243,0,7.155,7.155,0,0,0-4.45,4.38,24.722,24.722,0,0,0,0,10.327,7.15,7.15,0,0,0,4.45,4.38,0,0,0,0,0,0,0,0.172,0.172,0,0,1,.137.169v5.02a0.271,0.271,0,0,0,.468.193l2.319-2.447,2.181-2.3a0.168,0.168,0,0,1,.124-0.051,31.809,31.809,0,0,0,7.013-.582,7.153,7.153,0,0,0,4.45-4.38,24.693,24.693,0,0,0,0-10.328A7.15,7.15,0,0,0,119.8,166.663Zm0.062,14.963a3.061,3.061,0,0,1-2.318,2.062c-0.273-.085-0.533-0.143-0.775-0.246a16.006,16.006,0,0,1-9.176-8.553c-0.326-.681-0.6-1.388-0.88-2.091a1.844,1.844,0,0,1,.516-1.786,4.113,4.113,0,0,1,1.367-1.056,0.864,0.864,0,0,1,1.1.268,14.521,14.521,0,0,1,1.7,2.443,1.183,1.183,0,0,1-.317,1.575c-0.128.09-.245,0.2-0.365,0.3a1.21,1.21,0,0,0-.276.3,0.839,0.839,0,0,0-.053.719,6.443,6.443,0,0,0,3.555,4.045,1.771,1.771,0,0,0,.911.228c0.557-.068.737-0.7,1.127-1.023a1.04,1.04,0,0,1,1.28-.058c0.411,0.268.809,0.555,1.2,0.845a13.662,13.662,0,0,1,1.134.887A0.941,0.941,0,0,1,119.864,181.626Zm-3.234-6c-0.156,0-.095,0-0.036,0a0.406,0.406,0,0,1-.414-0.407,4.173,4.173,0,0,0-.077-0.538,1.511,1.511,0,0,0-.543-0.877,1.392,1.392,0,0,0-.443-0.22c-0.2-.059-0.41-0.043-0.61-0.093a0.386,0.386,0,0,1-.305-0.447,0.4,0.4,0,0,1,.416-0.325,2.282,2.282,0,0,1,2.308,2.307,1.078,1.078,0,0,1,0,.326,0.33,0.33,0,0,1-.273.273C116.658,175.621,116.656,175.622,116.63,175.624Zm-0.79-3.516a4.373,4.373,0,0,0-1.239-.391c-0.187-.032-0.376-0.051-0.563-0.078a0.364,0.364,0,0,1-.338-0.412,0.356,0.356,0,0,1,.392-0.358,5.043,5.043,0,0,1,2.147.575,4.461,4.461,0,0,1,2.363,3.468c0.01,0.071.027,0.141,0.032,0.212,0.013,0.175.021,0.35,0.034,0.581a1.656,1.656,0,0,1-.032.234,0.369,0.369,0,0,1-.7.04,1.045,1.045,0,0,1-.039-0.326,4.171,4.171,0,0,0-.5-2.047A3.749,3.749,0,0,0,115.84,172.108Zm4.2,4.82a0.424,0.424,0,0,1-.4-0.464c-0.034-.48-0.057-0.961-0.122-1.437a5.945,5.945,0,0,0-4.715-5.03c-0.366-.067-0.74-0.085-1.11-0.125a0.533,0.533,0,0,1-.593-0.339,0.407,0.407,0,0,1,.4-0.463c0.063,0,.126,0,0.19,0,3.147,0.09.192,0.007,0.008,0a6.712,6.712,0,0,1,6.537,5.66c0.1,0.567.133,1.147,0.177,1.723A0.4,0.4,0,0,1,120.041,176.928Z" transform="translate(-89.375 -154.188)"/>
</svg>
