<svg id="VK" xmlns="http://www.w3.org/2000/svg" width="29" height="29" viewBox="0 0 29 29">
  <metadata><?xpacket begin="﻿" id="W5M0MpCehiHzreSzNTczkc9d"?>
<x:xmpmeta xmlns:x="adobe:ns:meta/" x:xmptk="Adobe XMP Core 5.6-c138 79.159824, 2016/09/14-01:09:01        ">
   <rdf:RDF xmlns:rdf="http://www.w3.org/1999/02/22-rdf-syntax-ns#">
      <rdf:Description rdf:about=""/>
   </rdf:RDF>
</x:xmpmeta>
                                                                                                    
                                                                                                    
                                                                                                    
                                                                                                    
                                                                                                    
                                                                                                    
                                                                                                    
                                                                                                    
                                                                                                    
                                                                                                    
                                                                                                    
                                                                                                    
                                                                                                    
                                                                                                    
                                                                                                    
                                                                                                    
                                                                                                    
                                                                                                    
                                                                                                    
                                                                                                    
                           
<?xpacket end="w"?></metadata>
<defs>
    <style>
      .cls-1 {
        fill: #337d00;
        fill-opacity: 0;
        stroke: #282828;
        stroke-linejoin: round;
        stroke-width: 1px;
      }

      .cls-2 {
        fill: #282828;
        fill-rule: evenodd;
      }
    </style>
  </defs>
  <circle id="round" class="cls-1" cx="14.5" cy="14.5" r="14"/>
  <path id="vk-2" data-name="vk" class="cls-2" d="M1510.91,123.129a0.721,0.721,0,0,0-.06-0.1,8.3,8.3,0,0,0-1.69-1.816l-0.02-.016-0.01-.008v-0.008h-0.01a9.785,9.785,0,0,1-.72-0.674,0.6,0.6,0,0,1-.12-0.666,6.016,6.016,0,0,1,.79-1.076c0.24-.29.44-0.523,0.58-0.7q1.53-1.89,1.32-2.416l-0.05-.082a0.479,0.479,0,0,0-.27-0.135,1.527,1.527,0,0,0-.57-0.021l-2.55.017a0.318,0.318,0,0,0-.17,0l-0.12.025-0.04.02-0.04.025a0.46,0.46,0,0,0-.1.086,0.584,0.584,0,0,0-.08.144,13.691,13.691,0,0,1-.95,1.848q-0.33.51-.6,0.884a5.522,5.522,0,0,1-.46.55,3.825,3.825,0,0,1-.34.283,0.34,0.34,0,0,1-.23.091l-0.15-.033a0.592,0.592,0,0,1-.2-0.2,0.906,0.906,0,0,1-.1-0.321,2.209,2.209,0,0,1-.03-0.333c-0.01-.093,0-0.224,0-0.394s0.01-.285.01-0.345c0-.208.01-0.434,0.01-0.678s0.02-.437.03-0.579v-0.452a1.822,1.822,0,0,0-.03-0.374,1.258,1.258,0,0,0-.09-0.263,0.446,0.446,0,0,0-.18-0.2,1.109,1.109,0,0,0-.3-0.111,6.377,6.377,0,0,0-1.19-.107,6.257,6.257,0,0,0-2.12.2,1.2,1.2,0,0,0-.33.246c-0.11.121-.12,0.187-0.05,0.2a1.077,1.077,0,0,1,.75.353l0.06,0.1a1.52,1.52,0,0,1,.12.378,3.514,3.514,0,0,1,.08.6,5.83,5.83,0,0,1,0,1.027c-0.03.285-.06,0.506-0.08,0.665a1.457,1.457,0,0,1-.12.386c-0.06.1-.09,0.159-0.11,0.181a0.218,0.218,0,0,1-.04.041,0.721,0.721,0,0,1-.24.041,0.6,0.6,0,0,1-.3-0.115,2.1,2.1,0,0,1-.37-0.316,4.029,4.029,0,0,1-.43-0.563,9.3,9.3,0,0,1-.49-0.854l-0.15-.239c-0.08-.153-0.21-0.376-0.36-0.669s-0.29-.577-0.41-0.851a0.478,0.478,0,0,0-.21-0.262l-0.04-.025a0.749,0.749,0,0,0-.14-0.07,1.154,1.154,0,0,0-.21-0.053l-2.42.016a0.658,0.658,0,0,0-.51.156l-0.03.049a0.23,0.23,0,0,0-.03.132,0.742,0.742,0,0,0,.05.222c0.36,0.772.74,1.517,1.16,2.234s0.78,1.3,1.08,1.734,0.62,0.852.94,1.24,0.53,0.639.63,0.748,0.19,0.192.25,0.246l0.22,0.2a5.332,5.332,0,0,0,.62.472c0.28,0.183.58,0.364,0.91,0.542a5.431,5.431,0,0,0,1.17.436,4.3,4.3,0,0,0,1.29.135h1.02a0.755,0.755,0,0,0,.47-0.18l0.03-.042a0.38,0.38,0,0,0,.07-0.151,0.808,0.808,0,0,0,.03-0.226,2.135,2.135,0,0,1,.06-0.637,1.359,1.359,0,0,1,.15-0.427,0.911,0.911,0,0,1,.19-0.242,0.691,0.691,0,0,1,.15-0.119,0.421,0.421,0,0,1,.07-0.029,0.591,0.591,0,0,1,.5.127,2.982,2.982,0,0,1,.54.477c0.17,0.189.37,0.4,0.61,0.636a4.078,4.078,0,0,0,.61.526l0.18,0.1a2.318,2.318,0,0,0,.46.181,1.1,1.1,0,0,0,.5.041l2.26-.033a1.133,1.133,0,0,0,.53-0.1,0.454,0.454,0,0,0,.22-0.226,0.654,0.654,0,0,0,0-.279A0.981,0.981,0,0,0,1510.91,123.129Z" transform="translate(-1488.5 -104.5)"/>
</svg>
