<svg id="YouTube" xmlns="http://www.w3.org/2000/svg" width="29" height="29" viewBox="0 0 29 29">
  <metadata><?xpacket begin="﻿" id="W5M0MpCehiHzreSzNTczkc9d"?>
<x:xmpmeta xmlns:x="adobe:ns:meta/" x:xmptk="Adobe XMP Core 5.6-c138 79.159824, 2016/09/14-01:09:01        ">
   <rdf:RDF xmlns:rdf="http://www.w3.org/1999/02/22-rdf-syntax-ns#">
      <rdf:Description rdf:about=""/>
   </rdf:RDF>
</x:xmpmeta>
                                                                                                    
                                                                                                    
                                                                                                    
                                                                                                    
                                                                                                    
                                                                                                    
                                                                                                    
                                                                                                    
                                                                                                    
                                                                                                    
                                                                                                    
                                                                                                    
                                                                                                    
                                                                                                    
                                                                                                    
                                                                                                    
                                                                                                    
                                                                                                    
                                                                                                    
                                                                                                    
                           
<?xpacket end="w"?></metadata>
<defs>
    <style>
      .cls-1 {
        fill: #337d00;
        fill-opacity: 0;
        stroke: #282828;
        stroke-linejoin: round;
        stroke-width: 1px;
      }

      .cls-2 {
        fill: #282828;
        fill-rule: evenodd;
      }
    </style>
  </defs>
  <circle id="Эллипс_4" data-name="Эллипс 4" class="cls-1" cx="14.5" cy="14.5" r="14"/>
  <path id="youtube-2" data-name="youtube" class="cls-2" d="M1465.4,114.963a1.582,1.582,0,0,0-1.63-.879c-0.83-.06-2.94-0.084-4.77-0.084s-3.94.024-4.77,0.083a1.613,1.613,0,0,0-1.64.88A8.9,8.9,0,0,0,1452,119V119h0a8.872,8.872,0,0,0,.59,4.027,1.626,1.626,0,0,0,1.63.888c0.84,0.051,2.95.081,4.78,0.081s3.94-.03,4.77-0.08a1.623,1.623,0,0,0,1.64-.888,8.872,8.872,0,0,0,.59-4.027V119A8.728,8.728,0,0,0,1465.4,114.963Zm-8.15,6.764v-5.454l4.37,2.727Z" transform="translate(-1444.5 -104.5)"/>
</svg>
